<svg xmlns="http://www.w3.org/2000/svg" viewBox="0 0 24 24" fill="currentColor">
  <path
    d="M7.076 21.337H2.47a.641.641 0 0 1-.633-.74L4.944.901C5.026.382 5.474 0 5.998 0h7.46c2.57 0 4.578.543 5.69 1.81 1.01 1.15 1.304 2.42 1.012 4.287-.023.143-.047.288-.077.437-.983 5.05-4.349 6.797-8.647 6.797h-2.19c-.524 0-.968.382-1.05.9l-1.12 7.106zm14.146-14.42a3.35 3.35 0 0 0-.607-.541c-.013.076-.026.175-.041.254-.59 3.025-2.566 4.643-5.813 4.643h-2.19a.641.641 0 0 0-.634.541l-1.375 8.71a.532.532 0 0 0 .525.614h3.69a.561.561 0 0 0 .554-.47l.23-1.453.44-2.79a.561.561 0 0 1 .554-.47h1.092c2.847 0 5.077-1.156 5.73-4.503.272-1.394.13-2.56-.655-3.535z"
  />
</svg>
